<svg xmlns="http://www.w3.org/2000/svg" viewBox="0 0 800 420" font-family="Segoe UI, sans-serif">
<rect width="800" height="420" fill="#0d1117" rx="8"/>
<text x="64" y="30" fill="#e6edf3" font-size="17" font-weight="700">★ Star History — timoncool/prompt-warrior</text>
<text x="776" y="30" fill="#e6edf3" font-size="14" text-anchor="end">17 stars · updated 2026-07-13</text>
<line x1="64" y1="364.0" x2="776" y2="364.0" stroke="#30363d" stroke-width="1"/><text x="54" y="368.0" fill="#e6edf3" font-size="13" text-anchor="end">0</text><line x1="64" y1="289.6" x2="776" y2="289.6" stroke="#30363d" stroke-width="1"/><text x="54" y="293.6" fill="#e6edf3" font-size="13" text-anchor="end">4</text><line x1="64" y1="215.3" x2="776" y2="215.3" stroke="#30363d" stroke-width="1"/><text x="54" y="219.3" fill="#e6edf3" font-size="13" text-anchor="end">8</text><line x1="64" y1="122.4" x2="776" y2="122.4" stroke="#30363d" stroke-width="1"/><text x="54" y="126.4" fill="#e6edf3" font-size="13" text-anchor="end">13</text><line x1="64" y1="48.0" x2="776" y2="48.0" stroke="#30363d" stroke-width="1"/><text x="54" y="52.0" fill="#e6edf3" font-size="13" text-anchor="end">17</text>
<path d="M64.0,364.0 L64.0,345.4 L69.7,326.8 L93.8,308.2 L94.2,289.6 L96.9,271.1 L103.8,252.5 L104.0,233.9 L111.6,215.3 L171.7,196.7 L217.0,178.1 L231.0,159.5 L242.1,140.9 L259.9,122.4 L276.1,103.8 L394.6,85.2 L584.6,66.6 L742.4,48.0 L776.0,48.0" fill="none" stroke="#4f8ff7" stroke-width="2.5" stroke-linejoin="round"/>
<circle cx="776.0" cy="48.0" r="4" fill="#4f8ff7"/>
<text x="64.0" y="388" fill="#e6edf3" font-size="13" text-anchor="middle">Jul 04, 2026</text><text x="301.3" y="388" fill="#e6edf3" font-size="13" text-anchor="middle">Jul 07, 2026</text><text x="538.7" y="388" fill="#e6edf3" font-size="13" text-anchor="middle">Jul 10, 2026</text><text x="776.0" y="388" fill="#e6edf3" font-size="13" text-anchor="middle">Jul 13, 2026</text>
</svg>